<?xml version="1.0" encoding="utf-8"?>
<!-- Generator: Adobe Illustrator 21.0.0, SVG Export Plug-In . SVG Version: 6.00 Build 0)  -->
<svg version="1.1" id="Layer_1" xmlns="http://www.w3.org/2000/svg" xmlns:xlink="http://www.w3.org/1999/xlink" x="0px" y="0px"
	 viewBox="0 0 92 30" style="enable-background:new 0 0 92 30;" xml:space="preserve">
<style type="text/css">
	.st0{fill:#FFFFFF;}
</style>
<path class="st0" d="M81.2,1.2h-7.8l-8.3,21.5h-8.4V18h8.1v-6.1h-8.1V7.3h8.5V1.2H49.5V27l-7.3-9.5c3.9-0.7,6-4,6-7.8
	c0-5.9-4.1-8.5-9.6-8.5H28v9.6C26.2,5,20.8,0.9,14.5,0.9C6.7,0.9,0.4,7.2,0.4,15c0,1,0.1,2,0.3,3c0.8,2,2.6,4.2,6.6,4.2
	c7.2,0,7.2-7.2,7.2-7.2h-1.8l5.6-5.5l5.6,5.5h-1.9c0,0-1.1,10.8-11.5,10.8c-4.6,0-7.2-2.1-8.6-4.4C4.3,26,9,29.1,14.5,29.1
	c6.3,0,11.6-4.1,13.5-9.9v9.5h7.2V18.2h0.1L42,28.8h28.4l1.9-4.8h9.9l1.8,4.8h7.6L81.2,1.2z M35.8,13.6h-0.7V6.7h0.7
	c2.3,0,5,0.4,5,3.4C40.8,13.1,38.2,13.6,35.8,13.6z M74.3,18.5l3-8.8h0.1l2.9,8.8H74.3z"/>
</svg>
